<svg width="28" height="14" viewBox="0 0 28 14" fill="none" xmlns="http://www.w3.org/2000/svg">
<path fill-rule="evenodd" clip-rule="evenodd" d="M0.688721 4.31664C0.688721 2.19829 2.40598 0.48103 4.52434 0.48103H20.8257C22.9441 0.48103 24.6613 2.19829 24.6613 4.31665V9.11117C24.6613 11.2295 22.9441 12.9468 20.8257 12.9468H4.52434C2.40599 12.9468 0.688721 11.2295 0.688721 9.11117V4.31664Z" fill="black"/>
<path d="M25.6202 5.27555V9.32246C26.4344 8.97971 26.9639 8.18238 26.9639 7.299C26.9639 6.41563 26.4344 5.6183 25.6202 5.27555" fill="black"/>
<path d="M7.41284 10.481L10.3205 4.8765V4.8484H6.88375V3.72469H11.7157V4.86245L8.89708 10.481H7.41284ZM17.1765 9.68038C16.6926 10.314 16.0262 10.6309 15.1772 10.6309C14.3282 10.6309 13.6602 10.3156 13.1732 9.68506C12.6863 9.05141 12.4428 8.18678 12.4428 7.09115C12.4428 6.00177 12.6863 5.14338 13.1732 4.51597C13.6633 3.88544 14.3313 3.57018 15.1772 3.57018C16.0231 3.57018 16.6895 3.88388 17.1765 4.51129C17.6634 5.1387 17.9069 5.99709 17.9069 7.08647C17.9069 8.17897 17.6634 9.04361 17.1765 9.68038ZM14.222 8.86569C14.453 9.28708 14.7714 9.49778 15.1772 9.49778C15.583 9.49778 15.8998 9.28864 16.1277 8.87037C16.3555 8.44898 16.4695 7.8559 16.4695 7.09115C16.4695 6.33265 16.354 5.74582 16.123 5.33067C15.8951 4.91239 15.5799 4.70326 15.1772 4.70326C14.7745 4.70326 14.4577 4.91239 14.2267 5.33067C13.9957 5.74894 13.8802 6.33577 13.8802 7.09115C13.8802 7.85278 13.9942 8.44429 14.222 8.86569Z" fill="white"/>
</svg>
