<svg width="18" height="12" viewBox="0 0 18 12" fill="none" xmlns="http://www.w3.org/2000/svg">
<path d="M9.75747 3.02857C9.75747 2.49898 10.1868 2.06966 10.7164 2.06966H11.6753C12.2049 2.06966 12.6342 2.49898 12.6342 3.02857V10.6998C12.6342 11.2294 12.2049 11.6587 11.6753 11.6587H10.7164C10.1868 11.6587 9.75747 11.2294 9.75747 10.6998V3.02857Z" fill="black"/>
<path d="M14.552 1.11076C14.552 0.581171 14.9813 0.151855 15.5109 0.151855H16.4698C16.9994 0.151855 17.4287 0.581172 17.4287 1.11076V10.6998C17.4287 11.2294 16.9994 11.6587 16.4698 11.6587H15.5109C14.9813 11.6587 14.552 11.2294 14.552 10.6998V1.11076Z" fill="black"/>
<path d="M4.96295 6.38473C4.96295 5.85514 5.39226 5.42583 5.92185 5.42583H6.88075C7.41034 5.42583 7.83966 5.85514 7.83966 6.38473V10.6998C7.83966 11.2294 7.41034 11.6587 6.88075 11.6587H5.92185C5.39226 11.6587 4.96295 11.2294 4.96295 10.6998V6.38473Z" fill="black"/>
<path d="M0.168427 8.78199C0.168427 8.25241 0.597742 7.82309 1.12733 7.82309H2.08623C2.61582 7.82309 3.04514 8.25241 3.04514 8.78199V10.6998C3.04514 11.2294 2.61582 11.6587 2.08623 11.6587H1.12733C0.597742 11.6587 0.168427 11.2294 0.168427 10.6998V8.78199Z" fill="black"/>
</svg>
